<svg width="900" height="229" viewBox="0 0 900 229" fill="none" xmlns="http://www.w3.org/2000/svg">
<path d="M0 0L21.5 1.70001C43 3.30001 86 6.69999 128.8 14.3C171.7 22 214.3 34 257.2 42.2C300 50.3 343 54.7 385.8 51.8C428.7 49 471.3 39 514.2 38.5C557 38 600 47 642.8 54.5C685.7 62 728.3 68 771.2 66.3C814 64.7 857 55.3 878.5 50.7L900 46V229H878.5C857 229 814 229 771.2 229C728.3 229 685.7 229 642.8 229C600 229 557 229 514.2 229C471.3 229 428.7 229 385.8 229C343 229 300 229 257.2 229C214.3 229 171.7 229 128.8 229C86 229 43 229 21.5 229H0V0Z" fill="#00B2FF"/>
<path d="M0 106L21.5 99C43 92 86 78 128.8 68.2C171.7 58.3 214.3 52.7 257.2 59.7C300 66.7 343 86.3 385.8 90.2C428.7 94 471.3 82 514.2 68.5C557 55 600 40 642.8 45.8C685.7 51.7 728.3 78.3 771.2 88.2C814 98 857 91 878.5 87.5L900 84V229H878.5C857 229 814 229 771.2 229C728.3 229 685.7 229 642.8 229C600 229 557 229 514.2 229C471.3 229 428.7 229 385.8 229C343 229 300 229 257.2 229C214.3 229 171.7 229 128.8 229C86 229 43 229 21.5 229H0V106Z" fill="#00A2FF"/>
<path d="M0 138L21.5 133.5C43 129 86 120 128.8 118.8C171.7 117.7 214.3 124.3 257.2 126.5C300 128.7 343 126.3 385.8 116.7C428.7 107 471.3 89.9999 514.2 81.9999C557 73.9999 600 74.9999 642.8 83.2999C685.7 91.6999 728.3 107.3 771.2 115.5C814 123.7 857 124.3 878.5 124.7L900 125V229H878.5C857 229 814 229 771.2 229C728.3 229 685.7 229 642.8 229C600 229 557 229 514.2 229C471.3 229 428.7 229 385.8 229C343 229 300 229 257.2 229C214.3 229 171.7 229 128.8 229C86 229 43 229 21.5 229H0V138Z" fill="#0090FF"/>
<path d="M0 160L21.5 154.5C43 149 86 138 128.8 135.3C171.7 132.7 214.3 138.3 257.2 142.5C300 146.7 343 149.3 385.8 153.2C428.7 157 471.3 162 514.2 156.3C557 150.7 600 134.3 642.8 129.5C685.7 124.7 728.3 131.3 771.2 135.7C814 140 857 142 878.5 143L900 144V229H878.5C857 229 814 229 771.2 229C728.3 229 685.7 229 642.8 229C600 229 557 229 514.2 229C471.3 229 428.7 229 385.8 229C343 229 300 229 257.2 229C214.3 229 171.7 229 128.8 229C86 229 43 229 21.5 229H0V160Z" fill="#007CFF"/>
<path d="M0 179L21.5 182C43 185 86 191 128.8 190C171.7 189 214.3 181 257.2 178C300 175 343 177 385.8 179.3C428.7 181.7 471.3 184.3 514.2 185C557 185.7 600 184.3 642.8 183.7C685.7 183 728.3 183 771.2 184.7C814 186.3 857 189.7 878.5 191.3L900 193V229H878.5C857 229 814 229 771.2 229C728.3 229 685.7 229 642.8 229C600 229 557 229 514.2 229C471.3 229 428.7 229 385.8 229C343 229 300 229 257.2 229C214.3 229 171.7 229 128.8 229C86 229 43 229 21.5 229H0V179Z" fill="#0066FF"/>
</svg>

