<svg width="512" height="512" viewBox="0 0 512 512" fill="none" xmlns="http://www.w3.org/2000/svg">
<rect width="512" height="512" rx="100" fill="#111520"/>
<path d="M120.673 372.8C118.391 372.8 116.542 372.08 115.125 370.64C113.708 369.2 113 367.32 113 365V328.76C113 327.24 113.512 326 114.535 325.04C115.558 324.08 116.856 323.6 118.43 323.6C119.926 323.6 121.145 324.08 122.09 325.04C123.113 326 123.625 327.24 123.625 328.76V359.36C123.625 361.76 124.805 362.96 127.166 362.96H137.672C139.089 362.96 140.23 363.44 141.096 364.4C142.04 365.28 142.513 366.44 142.513 367.88C142.513 369.32 142.04 370.52 141.096 371.48C140.23 372.36 139.089 372.8 137.672 372.8H120.673Z" fill="#F1F5F9"/>
<path d="M163.631 375.2C160.247 375.2 157.139 374.4 154.306 372.8C151.472 371.2 149.19 369 147.459 366.2C145.806 363.32 144.98 360.08 144.98 356.48C144.98 352.8 145.806 349.6 147.459 346.88C149.19 344.08 151.472 341.92 154.306 340.4C157.139 338.8 160.247 338 163.631 338C167.094 338 170.203 338.8 172.957 340.4C175.791 341.92 178.034 344.08 179.686 346.88C181.339 349.6 182.165 352.8 182.165 356.48C182.165 360.08 181.339 363.32 179.686 366.2C178.034 369 175.791 371.2 172.957 372.8C170.203 374.4 167.094 375.2 163.631 375.2ZM163.631 365.48C166.071 365.48 168.039 364.64 169.534 362.96C171.108 361.2 171.895 359.04 171.895 356.48C171.895 353.84 171.108 351.72 169.534 350.12C168.039 348.52 166.071 347.72 163.631 347.72C161.27 347.72 159.264 348.52 157.611 350.12C156.037 351.72 155.25 353.84 155.25 356.48C155.25 359.04 156.037 361.2 157.611 362.96C159.264 364.64 161.27 365.48 163.631 365.48Z" fill="#F1F5F9"/>
<path d="M205.803 374C200.53 374 196.241 372.32 192.936 368.96C189.709 365.52 188.096 360.96 188.096 355.28C188.096 349.6 189.67 345.12 192.818 341.84C196.044 338.48 200.255 336.8 205.449 336.8C209.148 336.8 212.374 338.12 215.129 340.76C215.444 339.8 216.034 339 216.9 338.36C217.765 337.72 218.789 337.4 219.969 337.4C221.543 337.4 222.802 337.88 223.747 338.84C224.77 339.72 225.281 340.8 225.281 342.08V369.32C225.281 370.68 224.77 371.8 223.747 372.68C222.802 373.56 221.543 374 219.969 374C217.372 374 215.759 372.84 215.129 370.52C212.611 372.84 209.502 374 205.803 374ZM206.629 364.28C209.148 364.28 211.155 363.44 212.65 361.76C214.145 360 214.893 357.84 214.893 355.28C214.893 352.64 214.145 350.52 212.65 348.92C211.155 347.32 209.148 346.52 206.629 346.52C204.19 346.52 202.183 347.32 200.609 348.92C199.114 350.52 198.366 352.64 198.366 355.28C198.366 357.84 199.114 360 200.609 361.76C202.183 363.44 204.19 364.28 206.629 364.28Z" fill="#F1F5F9"/>
<path d="M249.259 374C243.986 374 239.737 372.32 236.51 368.96C233.362 365.52 231.788 360.96 231.788 355.28C231.788 349.6 233.323 345.12 236.392 341.84C239.54 338.48 243.711 336.8 248.905 336.8C252.289 336.8 255.319 338.04 257.995 340.52V324.8C257.995 323.44 258.467 322.32 259.412 321.44C260.356 320.48 261.576 320 263.071 320C264.645 320 265.904 320.48 266.849 321.44C267.872 322.32 268.383 323.4 268.383 324.68V369.32C268.383 370.68 267.872 371.8 266.849 372.68C265.904 373.56 264.645 374 263.071 374C260.553 374 258.939 372.88 258.231 370.64C255.791 372.88 252.801 374 249.259 374ZM250.086 364.28C252.447 364.28 254.335 363.44 255.752 361.76C257.247 360 257.995 357.84 257.995 355.28C257.995 352.64 257.247 350.52 255.752 348.92C254.335 347.32 252.447 346.52 250.086 346.52C247.646 346.52 245.678 347.32 244.183 348.92C242.767 350.52 242.058 352.64 242.058 355.28C242.058 357.84 242.767 360 244.183 361.76C245.678 363.44 247.646 364.28 250.086 364.28Z" fill="#F1F5F9"/>
<path d="M282.695 374C281.2 374 279.941 373.56 278.918 372.68C277.894 371.8 277.383 370.68 277.383 369.32V324.68C277.383 323.4 277.855 322.32 278.799 321.44C279.823 320.48 281.121 320 282.695 320C284.19 320 285.41 320.48 286.355 321.44C287.299 322.32 287.771 323.44 287.771 324.8V369.2C287.771 370.56 287.26 371.72 286.237 372.68C285.292 373.56 284.112 374 282.695 374Z" fill="#F1F5F9"/>
<path d="M313.969 374C308.618 374 304.092 372.4 300.393 369.2C296.773 365.92 294.963 361.44 294.963 355.76C294.963 349.84 296.734 345.2 300.275 341.84C303.896 338.48 308.421 336.8 313.851 336.8C317.707 336.8 320.895 337.52 323.413 338.96C325.932 340.4 327.82 342.24 329.08 344.48C330.339 346.72 330.968 349.08 330.968 351.56C330.968 355.72 329.158 357.8 325.538 357.8H305.942C305.312 357.8 304.997 358.2 304.997 359C304.997 360.84 305.981 362.32 307.949 363.44C309.995 364.48 312.277 365 314.796 365C316.37 365 317.944 364.8 319.518 364.4C321.092 363.92 322.469 363.24 323.649 362.36C324.436 361.8 325.263 361.52 326.128 361.52C327.309 361.52 328.293 361.96 329.08 362.84C329.945 363.72 330.378 364.76 330.378 365.96C330.378 367.4 329.63 368.76 328.135 370.04C326.719 371.24 324.633 372.2 321.879 372.92C319.203 373.64 316.566 374 313.969 374ZM320.108 350.84C320.265 350.84 320.462 350.8 320.698 350.72C321.013 350.64 321.17 350.36 321.17 349.88C321.17 348.68 320.423 347.6 318.927 346.64C317.511 345.6 315.661 345.08 313.379 345.08C310.939 345.08 308.932 345.64 307.358 346.76C305.863 347.8 305.115 348.88 305.115 350C305.115 350.56 305.43 350.84 306.06 350.84H320.108Z" fill="#F1F5F9"/>
<path d="M350.296 374C344.945 374 340.537 372.88 337.075 370.64C336.366 370.16 335.855 369.6 335.54 368.96C335.225 368.24 335.068 367.56 335.068 366.92C335.068 365.56 335.501 364.32 336.366 363.2C337.311 362.08 338.452 361.52 339.79 361.52C340.419 361.52 341.049 361.68 341.679 362C343.095 362.64 344.709 363.2 346.519 363.68C348.329 364.08 349.982 364.28 351.477 364.28C354.389 364.28 355.845 363.6 355.845 362.24C355.845 361.44 355.491 360.76 354.782 360.2C354.074 359.56 352.421 359.12 349.824 358.88C348.801 358.8 347.463 358.64 345.81 358.4C344.236 358.16 342.662 357.72 341.088 357.08C339.514 356.36 338.176 355.32 337.075 353.96C336.052 352.6 335.54 350.76 335.54 348.44C335.54 344.84 336.878 342 339.554 339.92C342.23 337.84 345.81 336.8 350.296 336.8C352.893 336.8 355.333 337.08 357.615 337.64C359.976 338.2 361.747 339.04 362.928 340.16C364.029 341.2 364.58 342.4 364.58 343.76C364.58 344.96 364.148 346.04 363.282 347C362.416 347.96 361.314 348.44 359.976 348.44C359.268 348.44 358.599 348.28 357.97 347.96C357.025 347.32 355.805 346.84 354.31 346.52C352.893 346.2 351.437 346.04 349.942 346.04C346.952 346.04 345.456 346.68 345.456 347.96C345.456 348.52 345.732 349.04 346.283 349.52C346.912 349.92 348.289 350.28 350.414 350.6C351.752 350.76 353.287 351 355.018 351.32C356.75 351.56 358.402 352.04 359.976 352.76C361.629 353.4 363.006 354.48 364.108 356C365.21 357.52 365.761 359.6 365.761 362.24C365.761 365.84 364.344 368.72 361.511 370.88C358.678 372.96 354.94 374 350.296 374Z" fill="#F1F5F9"/>
<path d="M384.535 374C379.184 374 374.777 372.88 371.314 370.64C370.606 370.16 370.094 369.6 369.779 368.96C369.464 368.24 369.307 367.56 369.307 366.92C369.307 365.56 369.74 364.32 370.606 363.2C371.55 362.08 372.691 361.52 374.029 361.52C374.659 361.52 375.288 361.68 375.918 362C377.334 362.64 378.948 363.2 380.758 363.68C382.568 364.08 384.221 364.28 385.716 364.28C388.628 364.28 390.084 363.6 390.084 362.24C390.084 361.44 389.73 360.76 389.021 360.2C388.313 359.56 386.66 359.12 384.063 358.88C383.04 358.8 381.702 358.64 380.05 358.4C378.476 358.16 376.902 357.72 375.328 357.08C373.754 356.36 372.416 355.32 371.314 353.96C370.291 352.6 369.779 350.76 369.779 348.44C369.779 344.84 371.117 342 373.793 339.92C376.469 337.84 380.05 336.8 384.535 336.8C387.133 336.8 389.572 337.08 391.855 337.64C394.216 338.2 395.986 339.04 397.167 340.16C398.269 341.2 398.819 342.4 398.819 343.76C398.819 344.96 398.387 346.04 397.521 347C396.655 347.96 395.553 348.44 394.216 348.44C393.507 348.44 392.838 348.28 392.209 347.96C391.264 347.32 390.044 346.84 388.549 346.52C387.133 346.2 385.677 346.04 384.181 346.04C381.191 346.04 379.695 346.68 379.695 347.96C379.695 348.52 379.971 349.04 380.522 349.52C381.151 349.92 382.529 350.28 384.654 350.6C385.991 350.76 387.526 351 389.257 351.32C390.989 351.56 392.642 352.04 394.216 352.76C395.868 353.4 397.245 354.48 398.347 356C399.449 357.52 400 359.6 400 362.24C400 365.84 398.583 368.72 395.75 370.88C392.917 372.96 389.179 374 384.535 374Z" fill="#F1F5F9"/>
<g filter="url(#filter0_d_306_8)">
<path d="M202.786 123.732C195.122 133.608 196.847 147.857 206.638 155.559L256.78 195L206.638 234.441C196.847 242.143 195.122 256.392 202.786 266.268C210.449 276.144 224.6 277.906 234.391 270.204L305.724 214.094C306.282 213.73 306.828 213.339 307.362 212.919C317.153 205.217 318.878 190.968 311.214 181.092C310.308 179.924 309.31 178.869 308.24 177.931L308.262 177.902L234.391 119.796C224.6 112.094 210.449 113.856 202.786 123.732Z" fill="url(#paint0_linear_306_8)"/>
</g>
<defs>
<filter id="filter0_d_306_8" x="148" y="65" width="218" height="260" filterUnits="userSpaceOnUse" color-interpolation-filters="sRGB">
<feFlood flood-opacity="0" result="BackgroundImageFix"/>
<feColorMatrix in="SourceAlpha" type="matrix" values="0 0 0 0 0 0 0 0 0 0 0 0 0 0 0 0 0 0 127 0" result="hardAlpha"/>
<feOffset/>
<feGaussianBlur stdDeviation="25"/>
<feComposite in2="hardAlpha" operator="out"/>
<feColorMatrix type="matrix" values="0 0 0 0 0.00392157 0 0 0 0 0.494118 0 0 0 0 1 0 0 0 1 0"/>
<feBlend mode="normal" in2="BackgroundImageFix" result="effect1_dropShadow_306_8"/>
<feBlend mode="normal" in="SourceGraphic" in2="effect1_dropShadow_306_8" result="shape"/>
</filter>
<linearGradient id="paint0_linear_306_8" x1="187.056" y1="199.78" x2="313.199" y2="199.745" gradientUnits="userSpaceOnUse">
<stop stop-color="#0047FF"/>
<stop offset="0.0001" stop-color="#007DFF"/>
<stop offset="1" stop-color="#00B0FF"/>
<stop offset="1" stop-color="#00B0FF"/>
</linearGradient>
</defs>
</svg>
