<svg width="287" height="261" viewBox="0 0 287 261" fill="none" xmlns="http://www.w3.org/2000/svg">
<path d="M7.673 257.8C5.391 257.8 3.542 257.08 2.125 255.64C0.708 254.2 0 252.32 0 250V213.76C0 212.24 0.512004 211 1.535 210.04C2.558 209.08 3.856 208.6 5.43 208.6C6.926 208.6 8.145 209.08 9.09 210.04C10.113 211 10.625 212.24 10.625 213.76V244.36C10.625 246.76 11.805 247.96 14.166 247.96H24.672C26.089 247.96 27.23 248.44 28.096 249.4C29.04 250.28 29.513 251.44 29.513 252.88C29.513 254.32 29.04 255.52 28.096 256.48C27.23 257.36 26.089 257.8 24.672 257.8H7.673Z" fill="#F1F5F9"/>
<path d="M50.631 260.2C47.247 260.2 44.139 259.4 41.306 257.8C38.472 256.2 36.19 254 34.459 251.2C32.806 248.32 31.98 245.08 31.98 241.48C31.98 237.8 32.806 234.6 34.459 231.88C36.19 229.08 38.472 226.92 41.306 225.4C44.139 223.8 47.247 223 50.631 223C54.094 223 57.203 223.8 59.957 225.4C62.791 226.92 65.034 229.08 66.686 231.88C68.339 234.6 69.165 237.8 69.165 241.48C69.165 245.08 68.339 248.32 66.686 251.2C65.034 254 62.791 256.2 59.957 257.8C57.203 259.4 54.094 260.2 50.631 260.2ZM50.631 250.48C53.071 250.48 55.039 249.64 56.534 247.96C58.108 246.2 58.895 244.04 58.895 241.48C58.895 238.84 58.108 236.72 56.534 235.12C55.039 233.52 53.071 232.72 50.631 232.72C48.27 232.72 46.264 233.52 44.611 235.12C43.037 236.72 42.25 238.84 42.25 241.48C42.25 244.04 43.037 246.2 44.611 247.96C46.264 249.64 48.27 250.48 50.631 250.48Z" fill="#F1F5F9"/>
<path d="M92.803 259C87.53 259 83.241 257.32 79.936 253.96C76.709 250.52 75.096 245.96 75.096 240.28C75.096 234.6 76.67 230.12 79.818 226.84C83.044 223.48 87.255 221.8 92.449 221.8C96.148 221.8 99.374 223.12 102.129 225.76C102.444 224.8 103.034 224 103.9 223.36C104.765 222.72 105.789 222.4 106.969 222.4C108.543 222.4 109.802 222.88 110.747 223.84C111.77 224.72 112.281 225.8 112.281 227.08V254.32C112.281 255.68 111.77 256.8 110.747 257.68C109.802 258.56 108.543 259 106.969 259C104.372 259 102.759 257.84 102.129 255.52C99.611 257.84 96.502 259 92.803 259ZM93.629 249.28C96.148 249.28 98.155 248.44 99.65 246.76C101.145 245 101.893 242.84 101.893 240.28C101.893 237.64 101.145 235.52 99.65 233.92C98.155 232.32 96.148 231.52 93.629 231.52C91.19 231.52 89.183 232.32 87.609 233.92C86.114 235.52 85.366 237.64 85.366 240.28C85.366 242.84 86.114 245 87.609 246.76C89.183 248.44 91.19 249.28 93.629 249.28Z" fill="#F1F5F9"/>
<path d="M136.259 259C130.986 259 126.737 257.32 123.51 253.96C120.362 250.52 118.788 245.96 118.788 240.28C118.788 234.6 120.323 230.12 123.392 226.84C126.54 223.48 130.711 221.8 135.905 221.8C139.289 221.8 142.319 223.04 144.995 225.52V209.8C144.995 208.44 145.467 207.32 146.412 206.44C147.356 205.48 148.576 205 150.071 205C151.645 205 152.904 205.48 153.849 206.44C154.872 207.32 155.383 208.4 155.383 209.68V254.32C155.383 255.68 154.872 256.8 153.849 257.68C152.904 258.56 151.645 259 150.071 259C147.553 259 145.939 257.88 145.231 255.64C142.791 257.88 139.801 259 136.259 259ZM137.086 249.28C139.447 249.28 141.335 248.44 142.752 246.76C144.247 245 144.995 242.84 144.995 240.28C144.995 237.64 144.247 235.52 142.752 233.92C141.335 232.32 139.447 231.52 137.086 231.52C134.646 231.52 132.678 232.32 131.183 233.92C129.767 235.52 129.058 237.64 129.058 240.28C129.058 242.84 129.767 245 131.183 246.76C132.678 248.44 134.646 249.28 137.086 249.28Z" fill="#F1F5F9"/>
<path d="M169.695 259C168.2 259 166.941 258.56 165.918 257.68C164.894 256.8 164.383 255.68 164.383 254.32V209.68C164.383 208.4 164.855 207.32 165.799 206.44C166.823 205.48 168.121 205 169.695 205C171.19 205 172.41 205.48 173.355 206.44C174.299 207.32 174.771 208.44 174.771 209.8V254.2C174.771 255.56 174.26 256.72 173.237 257.68C172.292 258.56 171.112 259 169.695 259Z" fill="#F1F5F9"/>
<path d="M200.969 259C195.618 259 191.092 257.4 187.393 254.2C183.773 250.92 181.963 246.44 181.963 240.76C181.963 234.84 183.734 230.2 187.275 226.84C190.896 223.48 195.421 221.8 200.851 221.8C204.707 221.8 207.895 222.52 210.413 223.96C212.932 225.4 214.82 227.24 216.08 229.48C217.339 231.72 217.968 234.08 217.968 236.56C217.968 240.72 216.158 242.8 212.538 242.8H192.942C192.312 242.8 191.997 243.2 191.997 244C191.997 245.84 192.981 247.32 194.949 248.44C196.995 249.48 199.277 250 201.796 250C203.37 250 204.944 249.8 206.518 249.4C208.092 248.92 209.469 248.24 210.649 247.36C211.436 246.8 212.263 246.52 213.128 246.52C214.309 246.52 215.293 246.96 216.08 247.84C216.945 248.72 217.378 249.76 217.378 250.96C217.378 252.4 216.63 253.76 215.135 255.04C213.719 256.24 211.633 257.2 208.879 257.92C206.203 258.64 203.566 259 200.969 259ZM207.108 235.84C207.265 235.84 207.462 235.8 207.698 235.72C208.013 235.64 208.17 235.36 208.17 234.88C208.17 233.68 207.423 232.6 205.927 231.64C204.511 230.6 202.661 230.08 200.379 230.08C197.939 230.08 195.932 230.64 194.358 231.76C192.863 232.8 192.115 233.88 192.115 235C192.115 235.56 192.43 235.84 193.06 235.84H207.108Z" fill="#F1F5F9"/>
<path d="M237.296 259C231.945 259 227.537 257.88 224.075 255.64C223.366 255.16 222.855 254.6 222.54 253.96C222.225 253.24 222.068 252.56 222.068 251.92C222.068 250.56 222.501 249.32 223.366 248.2C224.311 247.08 225.452 246.52 226.79 246.52C227.419 246.52 228.049 246.68 228.679 247C230.095 247.64 231.709 248.2 233.519 248.68C235.329 249.08 236.982 249.28 238.477 249.28C241.389 249.28 242.845 248.6 242.845 247.24C242.845 246.44 242.491 245.76 241.782 245.2C241.074 244.56 239.421 244.12 236.824 243.88C235.801 243.8 234.463 243.64 232.81 243.4C231.236 243.16 229.662 242.72 228.088 242.08C226.514 241.36 225.176 240.32 224.075 238.96C223.052 237.6 222.54 235.76 222.54 233.44C222.54 229.84 223.878 227 226.554 224.92C229.23 222.84 232.81 221.8 237.296 221.8C239.893 221.8 242.333 222.08 244.615 222.64C246.976 223.2 248.747 224.04 249.928 225.16C251.029 226.2 251.58 227.4 251.58 228.76C251.58 229.96 251.148 231.04 250.282 232C249.416 232.96 248.314 233.44 246.976 233.44C246.268 233.44 245.599 233.28 244.97 232.96C244.025 232.32 242.805 231.84 241.31 231.52C239.893 231.2 238.437 231.04 236.942 231.04C233.952 231.04 232.456 231.68 232.456 232.96C232.456 233.52 232.732 234.04 233.283 234.52C233.912 234.92 235.289 235.28 237.414 235.6C238.752 235.76 240.287 236 242.018 236.32C243.75 236.56 245.402 237.04 246.976 237.76C248.629 238.4 250.006 239.48 251.108 241C252.21 242.52 252.761 244.6 252.761 247.24C252.761 250.84 251.344 253.72 248.511 255.88C245.678 257.96 241.94 259 237.296 259Z" fill="#F1F5F9"/>
<path d="M271.535 259C266.184 259 261.777 257.88 258.314 255.64C257.606 255.16 257.094 254.6 256.779 253.96C256.464 253.24 256.307 252.56 256.307 251.92C256.307 250.56 256.74 249.32 257.606 248.2C258.55 247.08 259.691 246.52 261.029 246.52C261.659 246.52 262.288 246.68 262.918 247C264.334 247.64 265.948 248.2 267.758 248.68C269.568 249.08 271.221 249.28 272.716 249.28C275.628 249.28 277.084 248.6 277.084 247.24C277.084 246.44 276.73 245.76 276.021 245.2C275.313 244.56 273.66 244.12 271.063 243.88C270.04 243.8 268.702 243.64 267.05 243.4C265.476 243.16 263.902 242.72 262.328 242.08C260.754 241.36 259.416 240.32 258.314 238.96C257.291 237.6 256.779 235.76 256.779 233.44C256.779 229.84 258.117 227 260.793 224.92C263.469 222.84 267.05 221.8 271.535 221.8C274.133 221.8 276.572 222.08 278.855 222.64C281.216 223.2 282.986 224.04 284.167 225.16C285.269 226.2 285.819 227.4 285.819 228.76C285.819 229.96 285.387 231.04 284.521 232C283.655 232.96 282.553 233.44 281.216 233.44C280.507 233.44 279.838 233.28 279.209 232.96C278.264 232.32 277.044 231.84 275.549 231.52C274.133 231.2 272.677 231.04 271.181 231.04C268.191 231.04 266.695 231.68 266.695 232.96C266.695 233.52 266.971 234.04 267.522 234.52C268.151 234.92 269.529 235.28 271.654 235.6C272.991 235.76 274.526 236 276.257 236.32C277.989 236.56 279.642 237.04 281.216 237.76C282.868 238.4 284.245 239.48 285.347 241C286.449 242.52 287 244.6 287 247.24C287 250.84 285.583 253.72 282.75 255.88C279.917 257.96 276.179 259 271.535 259Z" fill="#F1F5F9"/>
<g filter="url(#filter0_i_0_1)">
<path d="M89.786 8.73196C82.122 18.608 83.847 32.857 93.638 40.559L143.78 80L93.638 119.441C83.847 127.143 82.122 141.392 89.786 151.268C97.449 161.144 111.6 162.906 121.391 155.204L192.724 99.0939C193.282 98.7299 193.828 98.339 194.362 97.919C204.153 90.217 205.878 75.9679 198.214 66.0919C197.308 64.9239 196.31 63.869 195.24 62.931L195.262 62.9019L121.391 4.79595C111.6 -2.90605 97.449 -1.14404 89.786 8.73196Z" fill="url(#paint0_linear_0_1)"/>
</g>
<defs>
<filter id="filter0_i_0_1" x="85" y="-0.000244141" width="118" height="160" filterUnits="userSpaceOnUse" color-interpolation-filters="sRGB">
<feFlood flood-opacity="0" result="BackgroundImageFix"/>
<feBlend mode="normal" in="SourceGraphic" in2="BackgroundImageFix" result="shape"/>
<feColorMatrix in="SourceAlpha" type="matrix" values="0 0 0 0 0 0 0 0 0 0 0 0 0 0 0 0 0 0 127 0" result="hardAlpha"/>
<feOffset/>
<feGaussianBlur stdDeviation="25"/>
<feComposite in2="hardAlpha" operator="arithmetic" k2="-1" k3="1"/>
<feColorMatrix type="matrix" values="0 0 0 0 0.00392157 0 0 0 0 0.494118 0 0 0 0 1 0 0 0 1 0"/>
<feBlend mode="normal" in2="shape" result="effect1_innerShadow_0_1"/>
</filter>
<linearGradient id="paint0_linear_0_1" x1="74.056" y1="84.78" x2="200.199" y2="84.745" gradientUnits="userSpaceOnUse">
<stop stop-color="#0047FF"/>
<stop offset="0.0001" stop-color="#007DFF"/>
<stop offset="1" stop-color="#00B0FF"/>
</linearGradient>
</defs>
</svg>
